Coordinates
version=1
nRows=4
nColumns=107
inDegrees=yes

Units are S.I. units (second, meters, Newtons, ...)
If the header above contains a line with 'inDegrees', this indicates whether rotational values are in degrees (yes) or radians (no).

endheader
time	sternoclavicular_r2	sternoclavicular_r3	unrotscap_r3	unrotscap_r2	acromioclavicular_r2	acromioclavicular_r3	acromioclavicular_r1	unrothum_r1	unrothum_r3	unrothum_r2	elv_angle	shoulder_elv	shoulder1_r2	shoulder_rot	elbow_flexion	pro_sup	deviation	flexion	proximal_distal_r1	proximal_distal_r3	cmc_flexion	cmc_abduction	mp_flexion	ip_flexion	mcp2_flexion	mcp2_abduction	pm2_flexion	md2_flexion	mcp3_flexion	mcp3_abduction	pm3_flexion	md3_flexion	mcp4_flexion	mcp4_abduction	pm4_flexion	md4_flexion	mcp5_flexion	mcp5_abduction	pm5_flexion	md5_flexion	bicpt_tx	bicpt_ty	bicpt_tz	bicpt2_tx	bicpt2_ty	bicpt2_tz	ptpt_tx	ptpt_ty	ptpt_tz	FCUpt_tx	FCUpt_ty	FCUpt_tz	EDCpt_tx	EDCpt_ty	EDCpt_tz	APLpt_tx	APLpt_ty	APLpt_tz	FPLpt_tx	FPLpt_ty	FPLpt_tz	FPLpt2_tx	FPLpt2_ty	FPLpt2_tz	PEC1pt2_tx	PEC1pt2_ty	PEC1pt2_tz	PEC1pt3_tx	PEC1pt3_ty	PEC1pt3_tz	PEC2pt2_tx	PEC2pt2_ty	PEC2pt2_tz	PEC2pt3_tx	PEC2pt3_ty	PEC2pt3_tz	PEC3pt2_tx	PEC3pt2_ty	PEC3pt2_tz	PEC3pt3_tx	PEC3pt3_ty	PEC3pt3_tz	DELT2pt2a_tx	DELT2pt2a_ty	DELT2pt2a_tz	DELT2pt2_tx	DELT2pt2_ty	DELT2pt2_tz	LAT1pt2_tx	LAT1pt2_ty	LAT1pt2_tz	LAT1pt3_tx	LAT1pt3_ty	LAT1pt3_tz	LAT2pt2_tx	LAT2pt2_ty	LAT2pt2_tz	LAT2pt3_tx	LAT2pt3_ty	LAT2pt3_tz	LAT3pt2_tx	LAT3pt2_ty	LAT3pt2_tz	LAT3pt3_tx	LAT3pt3_ty	LAT3pt3_tz
      0.00000000	     -0.32503333	      0.13766878	     -0.13766878	      0.32503333	     -0.06581264	      0.53187459	      0.23907397	     -0.23907397	     -0.53187459	      0.06581264	     98.89703984	     76.95453069	     -1.72607897	    -20.27762091	     27.56005098	     19.18276839	      0.03843301	     -0.82408203	      0.05095068	     -0.41204101	     -6.03642222	      2.78535443	    -30.54576117	    -36.25938647	      0.44119282	     12.49866447	     12.60096963	    -30.00340333	     55.73410739	      4.66825927	     83.85975042	     56.94140599	     49.70711529	     -5.41323766	     84.65792581	     37.59873739	     17.67544606	     -0.17886448	    -20.30817997	      4.87468373	      0.00081160	     -0.03075880	     -0.00480880	      0.01603981	     -0.01768682	     -0.00938850	      0.00613261	     -0.06581651	     -0.00159527	      0.00575126	     -0.18386659	     -0.00007546	     -0.00230193	      0.00060030	      0.00017843	      0.00027443	      0.00010977	      0.00054886	      0.00035127	      0.00105381	      0.00059277	     -0.00050632	      0.00017115	      0.00020539	      0.00252240	      0.00884978	      0.00615637	     -0.00825124	      0.01992269	     -0.01889663	      0.00252240	      0.00884978	      0.00615637	      0.00055578	      0.01846910	     -0.00970483	      0.00397764	      0.00492125	      0.01603978	      0.00000000	      0.00792102	      0.00000000	     -0.00722518	     -0.03338974	     -0.00653203	      0.01393594	     -0.00044048	     -0.00339517	     -0.00089780	      0.01504890	     -0.00615637	      0.00247965	      0.02171830	     -0.01795607	     -0.00602811	      0.01303953	     -0.00551508	     -0.01256925	      0.02753264	     -0.03082459	     -0.02359941	      0.01457862	     -0.00739619	     -0.01564743	      0.03180790	     -0.03852005
      0.03333333	     -0.32501024	      0.13765900	     -0.13765900	      0.32501024	     -0.06580796	      0.53183680	      0.23905698	     -0.23905698	     -0.53183680	      0.06580796	     98.88703750	     76.94906211	     -1.72590439	    -20.28010168	     27.55283585	     19.18222335	      0.03843964	     -0.82408368	      0.05095857	     -0.41204184	     -6.03639945	      2.78580297	    -30.54568914	    -36.25932427	      0.44164035	     12.49813588	     12.60076577	    -30.00341266	     55.73606651	      4.66866673	     83.85989413	     56.94140602	     49.70548023	     -5.41349348	     84.65851735	     37.59884326	     17.67512218	     -0.17990096	    -20.30835842	      4.87466277	      0.00081136	     -0.03075798	     -0.00480867	      0.01603978	     -0.01768486	     -0.00938854	      0.00613265	     -0.06581648	     -0.00159523	      0.00575121	     -0.18386659	     -0.00007545	     -0.00230186	      0.00060028	      0.00017843	      0.00027443	      0.00010977	      0.00054886	      0.00035127	      0.00105380	      0.00059276	     -0.00050632	      0.00017115	      0.00020538	      0.00252222	      0.00884915	      0.00615593	     -0.00825066	      0.01992127	     -0.01889529	      0.00252222	      0.00884915	      0.00615593	      0.00055574	      0.01846779	     -0.00970414	      0.00397743	      0.00492090	      0.01603929	      0.00000000	      0.00791989	      0.00000000	     -0.00722467	     -0.03338737	     -0.00653109	      0.01393736	     -0.00044055	     -0.00339604	     -0.00089774	      0.01504783	     -0.00615593	      0.00247947	      0.02171675	     -0.01795480	     -0.00602768	      0.01303860	     -0.00551469	     -0.01256836	      0.02753069	     -0.03082240	     -0.02359773	      0.01457758	     -0.00739567	     -0.01564632	      0.03180564	     -0.03851731
      0.06666667	     -0.32383999	      0.13716333	     -0.13716333	      0.32383999	     -0.06557101	      0.52992184	      0.23819622	     -0.23819622	     -0.52992184	      0.06557101	     99.21290311	     76.67199554	     -1.73159182	    -21.64386315	     27.40260903	     19.69767718	      0.02101276	     -0.86034974	      0.02815572	     -0.43017487	     -6.55858099	      4.11412980	    -30.34869152	    -35.71726752	      1.75993887	     12.27616300	     11.38218038	    -29.30788841	     56.69148902	      4.30071705	     83.57489040	     57.11125874	     49.13863255	     -6.28690305	     85.90885754	     36.56896770	     17.46261697	     -1.07208681	    -19.77326244	      4.86574148	      0.00080639	     -0.03074076	     -0.00480589	      0.01606499	     -0.01764405	     -0.00934837	      0.00609456	     -0.06584111	     -0.00163675	      0.00579983	     -0.18385888	     -0.00008709	     -0.00236372	      0.00061798	      0.00018047	      0.00026037	      0.00010415	      0.00052075	      0.00033328	      0.00099984	      0.00056241	     -0.00058897	      0.00018786	      0.00022543	      0.00251314	      0.00881729	      0.00613376	     -0.00822095	      0.01984954	     -0.01882725	      0.00251314	      0.00881729	      0.00613376	      0.00055374	      0.01840129	     -0.00966920	      0.00396701	      0.00490318	      0.01601407	      0.00000000	      0.00786255	      0.00000000	     -0.00719865	     -0.03326716	     -0.00648349	      0.01470678	     -0.00048295	     -0.00388991	     -0.00089451	      0.01499365	     -0.00613376	      0.00247054	      0.02163856	     -0.01789015	     -0.00600598	      0.01299165	     -0.00549483	     -0.01252310	      0.02743156	     -0.03071142	     -0.02351277	      0.01452510	     -0.00736904	     -0.01558999	      0.03169112	     -0.03837863
      0.10000000	     -0.32344465	      0.13699589	     -0.13699589	      0.32344465	     -0.06549096	      0.52927491	      0.23790543	     -0.23790543	     -0.52927491	      0.06549096	     99.29446783	     76.57839483	     -1.73301539	    -22.06189981	     27.44950408	     20.21002142	      0.02631078	     -0.85164259	      0.03514084	     -0.42582130	     -6.59372555	      4.23968023	    -30.26791874	    -35.93713550	      2.15988736	     12.20017858	     11.26790442	    -30.39818981	     57.18346855	      4.36496779	     83.36878071	     57.44350219	     48.64169075	     -6.35728893	     86.73104533	     36.72595574	     17.60265782	     -1.35345075	    -20.00232894	      4.88545172	      0.00080794	     -0.03074613	     -0.00480676	      0.01608945	     -0.01765679	     -0.00930808	      0.00605671	     -0.06586559	     -0.00167803	      0.00584825	     -0.18385114	     -0.00009846	     -0.00242520	      0.00063565	      0.00018236	      0.00026395	      0.00010558	      0.00052790	      0.00033786	      0.00101358	      0.00057014	     -0.00059475	      0.00018900	      0.00022679	      0.00251007	      0.00880652	      0.00612628	     -0.00821091	      0.01982531	     -0.01880427	      0.00251007	      0.00880652	      0.00612628	      0.00055307	      0.01837883	     -0.00965739	      0.00396348	      0.00489720	      0.01600551	      0.00000000	      0.00784323	      0.00000000	     -0.00718987	     -0.03322654	     -0.00646746	      0.01493765	     -0.00049609	     -0.00404700	     -0.00089342	      0.01497534	     -0.00612628	      0.00246753	      0.02161214	     -0.01786831	     -0.00599865	      0.01297579	     -0.00548812	     -0.01250782	      0.02739807	     -0.03067393	     -0.02348406	      0.01450736	     -0.00736004	     -0.01557095	      0.03165243	     -0.03833177
